<svg width="668" height="214" viewBox="0 0 668 214" fill="none" xmlns="http://www.w3.org/2000/svg">
<path d="M30.2529 201.009C12.8066 201.009 4.54492 190.154 4.54492 167.039V161.414C4.54492 138.123 12.499 127.005 28.8906 127.005C44.4033 127.005 52.3135 136.761 52.3135 156.185V168.27C52.3135 175.696 48.71 179.783 42.25 179.783H29.9453C26.4736 179.783 24.1885 177.366 24.1885 173.675V154.559C24.1885 150.823 26.2979 148.406 29.4619 148.406C32.626 148.406 34.6914 150.823 34.6914 154.559V173.763H40.7559C44.2275 173.763 45.5898 172.356 45.5898 168.885V157.767C45.5898 141.023 40.4043 133.772 28.8027 133.772C16.542 133.772 11.5762 141.595 11.5762 161.282V166.116C11.5762 186.111 17.1572 194.285 30.7363 194.285C34.7354 194.285 38.6025 193.802 40.3604 193.011V199.471C38.251 200.35 33.9443 201.009 30.2529 201.009ZM108.256 154.383V192H98.0605V158.426C98.0605 154.954 96.3467 152.889 93.5781 152.889C90.7217 152.889 88.832 155.174 88.832 158.733V192H78.7686V158.426C78.7686 154.954 77.1426 152.889 74.2861 152.889C71.3857 152.889 69.4961 155.174 69.4961 158.733V192H59.3008V143.528H69.8037V151.131H71.0781C72.1768 145.55 75.4727 142.518 80.2627 142.518C84.6572 142.518 87.7334 145.506 88.7441 150.735H90.0186C91.0293 145.55 94.4131 142.518 99.0273 142.518C105.004 142.518 108.256 146.692 108.256 154.383ZM132.865 192.791C123.725 192.791 117.572 186.902 117.572 178.157C117.572 169.412 123.944 164.271 135.897 163.436L147.235 162.732V158.865C147.235 154.646 144.335 152.186 139.369 152.186C135.194 152.186 132.074 154.031 131.063 157.063H119.374C120.253 148.274 128.207 142.605 139.721 142.605C152.157 142.605 159.145 148.538 159.145 159.129V192H147.719V185.54H146.664C144.291 190.11 139.193 192.791 132.865 192.791ZM136.996 183.167C142.973 183.167 147.235 179.388 147.235 173.982V170.467L137.919 171.038C132.294 171.39 129.438 173.543 129.438 177.278C129.438 180.882 132.338 183.167 136.996 183.167ZM194.213 155.965H196.103C198.212 146.341 203.178 142.254 212.318 142.254C215.043 142.254 217.504 142.605 219.218 143.265V156.316C217.021 155.481 213.856 154.91 211.132 154.91C199.706 154.91 194.125 160.096 194.125 170.511V183.167H208.188V192H173.383V183.167H182.611V152.405H172.504V143.528H194.213V155.965ZM240.663 129.686H252.44V144.012H270.502V153.636H252.66V176.795C252.66 180.442 255.253 182.508 259.867 182.508C261.01 182.508 269.403 182.464 269.931 182.42V191.912C269.447 192 259.867 192.088 258.9 192.088C245.717 192.088 240.663 187.913 240.663 176.663V153.636H228.051V144.012H240.663V129.686ZM307.021 133.641C302.099 133.641 298.803 130.608 298.803 126.038C298.803 121.468 302.099 118.436 307.021 118.436C311.942 118.436 315.282 121.468 315.282 126.038C315.282 130.608 311.942 133.641 307.021 133.641ZM327.719 192H285.839V182.42H301.396V153.152H286.63V143.528H313.085V182.42H327.719V192ZM340.375 192V143.528H352.021V151.658H352.768C355.141 145.813 360.37 142.518 367.357 142.518C377.904 142.518 383.529 148.846 383.529 160.667V192H371.488V163.523C371.488 156.404 368.632 153.021 362.523 153.021C356.371 153.021 352.372 157.283 352.372 164.007V192H340.375ZM407.567 129.686H419.345V144.012H437.406V153.636H419.564V176.795C419.564 180.442 422.157 182.508 426.771 182.508C427.914 182.508 436.308 182.464 436.835 182.42V191.912C436.352 192 426.771 192.088 425.805 192.088C412.621 192.088 407.567 187.913 407.567 176.663V153.636H394.955V144.012H407.567V129.686ZM497.699 154.383V192H487.504V158.426C487.504 154.954 485.79 152.889 483.021 152.889C480.165 152.889 478.275 155.174 478.275 158.733V192H468.212V158.426C468.212 154.954 466.586 152.889 463.729 152.889C460.829 152.889 458.939 155.174 458.939 158.733V192H448.744V143.528H459.247V151.131H460.521C461.62 145.55 464.916 142.518 469.706 142.518C474.101 142.518 477.177 145.506 478.188 150.735H479.462C480.473 145.55 483.856 142.518 488.471 142.518C494.447 142.518 497.699 146.692 497.699 154.383ZM505.17 143.528H518.09L528.681 180.267H529.384L539.843 143.528H552.543L535.756 192H522.045L505.17 143.528Z" fill="black"/>
<path d="M14.4736 64.082V85H4.01465V21.5869H16.9346L27.6572 57.8418H28.4043L39.083 21.5869H52.0029V85H41.5439V64.082L43.126 38.7695H42.2031L32.2275 70.1025H23.79L13.8145 38.7695H12.8916L14.4736 64.082ZM77.0957 85.791C67.9551 85.791 61.8027 79.9023 61.8027 71.1572C61.8027 62.4121 68.1748 57.2705 80.1279 56.4355L91.4658 55.7324V51.8652C91.4658 47.6465 88.5654 45.1855 83.5996 45.1855C79.4248 45.1855 76.3047 47.0312 75.2939 50.0635H63.6045C64.4834 41.2744 72.4375 35.6055 83.9512 35.6055C96.3877 35.6055 103.375 41.5381 103.375 52.1289V85H91.9492V78.54H90.8945C88.5215 83.1104 83.4238 85.791 77.0957 85.791ZM81.2266 76.167C87.2031 76.167 91.4658 72.3877 91.4658 66.9824V63.4668L82.1494 64.0381C76.5244 64.3896 73.668 66.543 73.668 70.2783C73.668 73.8818 76.5684 76.167 81.2266 76.167ZM138.443 48.9648H140.333C142.442 39.3408 147.408 35.2539 156.549 35.2539C159.273 35.2539 161.734 35.6055 163.448 36.2646V49.3164C161.251 48.4814 158.087 47.9102 155.362 47.9102C143.937 47.9102 138.355 53.0957 138.355 63.5107V76.167H152.418V85H117.613V76.167H126.842V45.4053H116.734V36.5283H138.443V48.9648ZM184.894 22.6855H196.671V37.0117H214.732V46.6357H196.891V69.7949C196.891 73.4424 199.483 75.5078 204.098 75.5078C205.24 75.5078 213.634 75.4639 214.161 75.4199V84.9121C213.678 85 204.098 85.0879 203.131 85.0879C189.947 85.0879 184.894 80.9131 184.894 69.6631V46.6357H172.281V37.0117H184.894V22.6855ZM251.251 26.6406C246.329 26.6406 243.033 23.6084 243.033 19.0381C243.033 14.4678 246.329 11.4355 251.251 11.4355C256.173 11.4355 259.513 14.4678 259.513 19.0381C259.513 23.6084 256.173 26.6406 251.251 26.6406ZM271.949 85H230.069V75.4199H245.626V46.1523H230.86V36.5283H257.315V75.4199H271.949V85ZM284.605 85V36.5283H296.251V44.6582H296.998C299.371 38.8135 304.601 35.5176 311.588 35.5176C322.135 35.5176 327.76 41.8457 327.76 53.667V85H315.719V56.5234C315.719 49.4043 312.862 46.0205 306.754 46.0205C300.602 46.0205 296.603 50.2832 296.603 57.0068V85H284.605ZM423.692 85H411.212V32.3535H393.062V21.5869H441.842V32.3535H423.692V85ZM473.087 86.0547C459.42 86.0547 450.807 77.749 450.807 64.5215V57.0508C450.807 43.8232 459.42 35.5176 473.087 35.5176C486.754 35.5176 495.367 43.8232 495.367 57.0508V64.5215C495.367 77.749 486.754 86.0547 473.087 86.0547ZM473.087 45.3613C466.627 45.3613 462.628 50.0195 462.628 57.5342V64.0381C462.628 71.5088 466.627 76.2109 473.087 76.2109C479.547 76.2109 483.546 71.5088 483.546 64.0381V57.5342C483.546 50.0195 479.547 45.3613 473.087 45.3613ZM553.199 47.3828V85H543.004V51.4258C543.004 47.9541 541.29 45.8887 538.521 45.8887C535.665 45.8887 533.775 48.1738 533.775 51.7334V85H523.712V51.4258C523.712 47.9541 522.086 45.8887 519.229 45.8887C516.329 45.8887 514.439 48.1738 514.439 51.7334V85H504.244V36.5283H514.747V44.1309H516.021C517.12 38.5498 520.416 35.5176 525.206 35.5176C529.601 35.5176 532.677 38.5059 533.688 43.7354H534.962C535.973 38.5498 539.356 35.5176 543.971 35.5176C549.947 35.5176 553.199 39.6924 553.199 47.3828ZM584.356 86.0547C570.689 86.0547 562.076 77.749 562.076 64.5215V57.0508C562.076 43.8232 570.689 35.5176 584.356 35.5176C598.023 35.5176 606.637 43.8232 606.637 57.0508V64.5215C606.637 77.749 598.023 86.0547 584.356 86.0547ZM584.356 45.3613C577.896 45.3613 573.897 50.0195 573.897 57.5342V64.0381C573.897 71.5088 577.896 76.2109 584.356 76.2109C590.816 76.2109 594.815 71.5088 594.815 64.0381V57.5342C594.815 50.0195 590.816 45.3613 584.356 45.3613ZM616.305 36.5283H629.225L639.815 73.2666H640.519L650.978 36.5283H663.678L646.891 85H633.18L616.305 36.5283Z" fill="black"/>
</svg>
