<svg width="549" height="83" viewBox="0 0 549 83" fill="none" xmlns="http://www.w3.org/2000/svg">
<path d="M26.2529 83.0088C8.80664 83.0088 0.544922 72.1543 0.544922 49.0391V43.4141C0.544922 20.123 8.49902 9.00488 24.8906 9.00488C40.4033 9.00488 48.3135 18.7607 48.3135 38.1846V50.2695C48.3135 57.6963 44.71 61.7832 38.25 61.7832H25.9453C22.4736 61.7832 20.1885 59.3662 20.1885 55.6748V36.5586C20.1885 32.8232 22.2979 30.4062 25.4619 30.4062C28.626 30.4062 30.6914 32.8232 30.6914 36.5586V55.7627H36.7559C40.2275 55.7627 41.5898 54.3564 41.5898 50.8848V39.7666C41.5898 23.0234 36.4043 15.7725 24.8027 15.7725C12.542 15.7725 7.57617 23.5947 7.57617 43.2822V48.1162C7.57617 68.1113 13.1572 76.2852 26.7363 76.2852C30.7354 76.2852 34.6025 75.8018 36.3604 75.0107V81.4707C34.251 82.3496 29.9443 83.0088 26.2529 83.0088ZM104.256 36.3828V74H94.0605V40.4258C94.0605 36.9541 92.3467 34.8887 89.5781 34.8887C86.7217 34.8887 84.832 37.1738 84.832 40.7334V74H74.7686V40.4258C74.7686 36.9541 73.1426 34.8887 70.2861 34.8887C67.3857 34.8887 65.4961 37.1738 65.4961 40.7334V74H55.3008V25.5283H65.8037V33.1309H67.0781C68.1768 27.5498 71.4727 24.5176 76.2627 24.5176C80.6572 24.5176 83.7334 27.5059 84.7441 32.7354H86.0186C87.0293 27.5498 90.4131 24.5176 95.0273 24.5176C101.004 24.5176 104.256 28.6924 104.256 36.3828ZM128.865 74.791C119.725 74.791 113.572 68.9023 113.572 60.1572C113.572 51.4121 119.944 46.2705 131.897 45.4355L143.235 44.7324V40.8652C143.235 36.6465 140.335 34.1855 135.369 34.1855C131.194 34.1855 128.074 36.0312 127.063 39.0635H115.374C116.253 30.2744 124.207 24.6055 135.721 24.6055C148.157 24.6055 155.145 30.5381 155.145 41.1289V74H143.719V67.54H142.664C140.291 72.1104 135.193 74.791 128.865 74.791ZM132.996 65.167C138.973 65.167 143.235 61.3877 143.235 55.9824V52.4668L133.919 53.0381C128.294 53.3896 125.438 55.543 125.438 59.2783C125.438 62.8818 128.338 65.167 132.996 65.167ZM190.213 37.9648H192.103C194.212 28.3408 199.178 24.2539 208.318 24.2539C211.043 24.2539 213.504 24.6055 215.218 25.2646V38.3164C213.021 37.4814 209.856 36.9102 207.132 36.9102C195.706 36.9102 190.125 42.0957 190.125 52.5107V65.167H204.188V74H169.383V65.167H178.611V34.4053H168.504V25.5283H190.213V37.9648ZM236.663 11.6855H248.44V26.0117H266.502V35.6357H248.66V58.7949C248.66 62.4424 251.253 64.5078 255.867 64.5078C257.01 64.5078 265.403 64.4639 265.931 64.4199V73.9121C265.447 74 255.867 74.0879 254.9 74.0879C241.717 74.0879 236.663 69.9131 236.663 58.6631V35.6357H224.051V26.0117H236.663V11.6855ZM303.021 15.6406C298.099 15.6406 294.803 12.6084 294.803 8.03809C294.803 3.46777 298.099 0.435547 303.021 0.435547C307.942 0.435547 311.282 3.46777 311.282 8.03809C311.282 12.6084 307.942 15.6406 303.021 15.6406ZM323.719 74H281.839V64.4199H297.396V35.1523H282.63V25.5283H309.085V64.4199H323.719V74ZM336.375 74V25.5283H348.021V33.6582H348.768C351.141 27.8135 356.37 24.5176 363.357 24.5176C373.904 24.5176 379.529 30.8457 379.529 42.667V74H367.488V45.5234C367.488 38.4043 364.632 35.0205 358.523 35.0205C352.371 35.0205 348.372 39.2832 348.372 46.0068V74H336.375ZM403.567 11.6855H415.345V26.0117H433.406V35.6357H415.564V58.7949C415.564 62.4424 418.157 64.5078 422.771 64.5078C423.914 64.5078 432.308 64.4639 432.835 64.4199V73.9121C432.352 74 422.771 74.0879 421.805 74.0879C408.621 74.0879 403.567 69.9131 403.567 58.6631V35.6357H390.955V26.0117H403.567V11.6855ZM493.699 36.3828V74H483.504V40.4258C483.504 36.9541 481.79 34.8887 479.021 34.8887C476.165 34.8887 474.275 37.1738 474.275 40.7334V74H464.212V40.4258C464.212 36.9541 462.586 34.8887 459.729 34.8887C456.829 34.8887 454.939 37.1738 454.939 40.7334V74H444.744V25.5283H455.247V33.1309H456.521C457.62 27.5498 460.916 24.5176 465.706 24.5176C470.101 24.5176 473.177 27.5059 474.188 32.7354H475.462C476.473 27.5498 479.856 24.5176 484.471 24.5176C490.447 24.5176 493.699 28.6924 493.699 36.3828ZM501.17 25.5283H514.09L524.681 62.2666H525.384L535.843 25.5283H548.543L531.756 74H518.045L501.17 25.5283Z" fill="black"/>
</svg>
