<svg width="660" height="83" viewBox="0 0 660 83" fill="none" xmlns="http://www.w3.org/2000/svg">
<path d="M25.9268 83.0088C8.48047 83.0088 0.21875 72.1543 0.21875 49.0391V43.4141C0.21875 20.123 8.17285 9.00488 24.5645 9.00488C40.0771 9.00488 47.9873 18.7607 47.9873 38.1846V50.2695C47.9873 57.6963 44.3838 61.7832 37.9238 61.7832H25.6191C22.1475 61.7832 19.8623 59.3662 19.8623 55.6748V36.5586C19.8623 32.8232 21.9717 30.4062 25.1357 30.4062C28.2998 30.4062 30.3652 32.8232 30.3652 36.5586V55.7627H36.4297C39.9014 55.7627 41.2637 54.3564 41.2637 50.8848V39.7666C41.2637 23.0234 36.0781 15.7725 24.4766 15.7725C12.2158 15.7725 7.25 23.5947 7.25 43.2822V48.1162C7.25 68.1113 12.8311 76.2852 26.4102 76.2852C30.4092 76.2852 34.2764 75.8018 36.0342 75.0107V81.4707C33.9248 82.3496 29.6182 83.0088 25.9268 83.0088ZM103.93 36.3828V74H93.7344V40.4258C93.7344 36.9541 92.0205 34.8887 89.252 34.8887C86.3955 34.8887 84.5059 37.1738 84.5059 40.7334V74H74.4424V40.4258C74.4424 36.9541 72.8164 34.8887 69.96 34.8887C67.0596 34.8887 65.1699 37.1738 65.1699 40.7334V74H54.9746V25.5283H65.4775V33.1309H66.752C67.8506 27.5498 71.1465 24.5176 75.9365 24.5176C80.3311 24.5176 83.4072 27.5059 84.418 32.7354H85.6924C86.7031 27.5498 90.0869 24.5176 94.7012 24.5176C100.678 24.5176 103.93 28.6924 103.93 36.3828ZM128.539 74.791C119.398 74.791 113.246 68.9023 113.246 60.1572C113.246 51.4121 119.618 46.2705 131.571 45.4355L142.909 44.7324V40.8652C142.909 36.6465 140.009 34.1855 135.043 34.1855C130.868 34.1855 127.748 36.0312 126.737 39.0635H115.048C115.927 30.2744 123.881 24.6055 135.395 24.6055C147.831 24.6055 154.818 30.5381 154.818 41.1289V74H143.393V67.54H142.338C139.965 72.1104 134.867 74.791 128.539 74.791ZM132.67 65.167C138.646 65.167 142.909 61.3877 142.909 55.9824V52.4668L133.593 53.0381C127.968 53.3896 125.111 55.543 125.111 59.2783C125.111 62.8818 128.012 65.167 132.67 65.167ZM189.887 37.9648H191.776C193.886 28.3408 198.852 24.2539 207.992 24.2539C210.717 24.2539 213.178 24.6055 214.892 25.2646V38.3164C212.694 37.4814 209.53 36.9102 206.806 36.9102C195.38 36.9102 189.799 42.0957 189.799 52.5107V65.167H203.861V74H169.057V65.167H178.285V34.4053H168.178V25.5283H189.887V37.9648ZM236.337 11.6855H248.114V26.0117H266.176V35.6357H248.334V58.7949C248.334 62.4424 250.927 64.5078 255.541 64.5078C256.684 64.5078 265.077 64.4639 265.604 64.4199V73.9121C265.121 74 255.541 74.0879 254.574 74.0879C241.391 74.0879 236.337 69.9131 236.337 58.6631V35.6357H223.725V26.0117H236.337V11.6855ZM302.694 15.6406C297.772 15.6406 294.477 12.6084 294.477 8.03809C294.477 3.46777 297.772 0.435547 302.694 0.435547C307.616 0.435547 310.956 3.46777 310.956 8.03809C310.956 12.6084 307.616 15.6406 302.694 15.6406ZM323.393 74H281.513V64.4199H297.069V35.1523H282.304V25.5283H308.759V64.4199H323.393V74ZM336.049 74V25.5283H347.694V33.6582H348.441C350.814 27.8135 356.044 24.5176 363.031 24.5176C373.578 24.5176 379.203 30.8457 379.203 42.667V74H367.162V45.5234C367.162 38.4043 364.306 35.0205 358.197 35.0205C352.045 35.0205 348.046 39.2832 348.046 46.0068V74H336.049ZM403.241 11.6855H415.019V26.0117H433.08V35.6357H415.238V58.7949C415.238 62.4424 417.831 64.5078 422.445 64.5078C423.588 64.5078 431.981 64.4639 432.509 64.4199V73.9121C432.025 74 422.445 74.0879 421.479 74.0879C408.295 74.0879 403.241 69.9131 403.241 58.6631V35.6357H390.629V26.0117H403.241V11.6855ZM468.896 75.0547C455.229 75.0547 446.615 66.749 446.615 53.5215V46.0508C446.615 32.8232 455.229 24.5176 468.896 24.5176C482.562 24.5176 491.176 32.8232 491.176 46.0508V53.5215C491.176 66.749 482.562 75.0547 468.896 75.0547ZM468.896 34.3613C462.436 34.3613 458.437 39.0195 458.437 46.5342V53.0381C458.437 60.5088 462.436 65.2109 468.896 65.2109C475.355 65.2109 479.354 60.5088 479.354 53.0381V46.5342C479.354 39.0195 475.355 34.3613 468.896 34.3613ZM549.008 36.3828V74H538.812V40.4258C538.812 36.9541 537.099 34.8887 534.33 34.8887C531.474 34.8887 529.584 37.1738 529.584 40.7334V74H519.521V40.4258C519.521 36.9541 517.895 34.8887 515.038 34.8887C512.138 34.8887 510.248 37.1738 510.248 40.7334V74H500.053V25.5283H510.556V33.1309H511.83C512.929 27.5498 516.225 24.5176 521.015 24.5176C525.409 24.5176 528.485 27.5059 529.496 32.7354H530.771C531.781 27.5498 535.165 24.5176 539.779 24.5176C545.756 24.5176 549.008 28.6924 549.008 36.3828ZM580.165 75.0547C566.498 75.0547 557.885 66.749 557.885 53.5215V46.0508C557.885 32.8232 566.498 24.5176 580.165 24.5176C593.832 24.5176 602.445 32.8232 602.445 46.0508V53.5215C602.445 66.749 593.832 75.0547 580.165 75.0547ZM580.165 34.3613C573.705 34.3613 569.706 39.0195 569.706 46.5342V53.0381C569.706 60.5088 573.705 65.2109 580.165 65.2109C586.625 65.2109 590.624 60.5088 590.624 53.0381V46.5342C590.624 39.0195 586.625 34.3613 580.165 34.3613ZM612.113 25.5283H625.033L635.624 62.2666H636.327L646.786 25.5283H659.486L642.699 74H628.988L612.113 25.5283Z" fill="white"/>
</svg>
